<?xml version="1.0" encoding="UTF-8" standalone="no"?>
<!-- Created with Inkscape (http://www.inkscape.org/) -->

<svg
   width="73.507034mm"
   height="60.478928mm"
   viewBox="0 0 73.507034 60.478928"
   version="1.1"
   id="svg369"
   xmlns="http://www.w3.org/2000/svg"
   xmlns:svg="http://www.w3.org/2000/svg">
  <defs
     id="defs366" />
  <g
     id="layer1"
     transform="translate(-72.298433,-97.046247)">
    <path
       style="fill:#000000;stroke-width:0.264583"
       d="M 91.878635,157.28253 C 81.519157,155.5685 73.526108,147.58034 72.418708,137.8345 c -1.201391,-10.57305 6.767282,-21.92715 16.310627,-23.24006 1.15003,-0.15821 2.11089,-0.29561 2.13525,-0.30535 0.0244,-0.01 0.34884,-1.86307 0.72108,-4.11854 0.99965,-6.05708 1.27907,-6.7339 3.47403,-8.4148 3.65323,-2.797656 13.696515,-5.125848 18.169315,-4.211929 1.78455,0.364633 2.20904,0.369853 3.43958,0.04229 5.12023,-1.36294 5.37979,-0.962088 7.20642,11.129419 0.7914,5.23875 1.55728,10.29891 1.70197,11.24479 0.31034,2.02886 0.10567,2.44778 -1.97188,4.03611 -7.92533,6.0591 -22.74799,6.35655 -30.734275,0.61675 -1.91606,-1.37708 -2.09571,-0.29276 -0.22441,1.35443 7.849175,6.90911 27.258425,5.45633 32.625485,-2.44201 0.68384,-1.00637 0.68384,-1.00637 1.19247,0.9518 0.27974,1.077 0.54213,1.99168 0.58308,2.03264 0.041,0.0409 0.40616,-0.4042 0.81158,-0.98922 3.47497,-5.01438 11.60705,-10.32804 14.76549,-9.64805 6.39484,1.37675 3.1443,8.21813 -9.72045,20.45852 -15.96097,15.18634 -30.62047,22.67279 -41.025435,20.95124 z m 8.731255,-3.15789 c 7.39092,-1.93881 14.86126,-8.02034 25.51798,-20.77395 8.8507,-10.59221 12.15893,-13.69663 16.01779,-15.03099 0.7297,-0.25232 1.2672,-0.47176 1.19444,-0.48765 -4.22157,-0.92163 -9.35141,3.34213 -19.90941,16.54807 -11.43015,14.29682 -16.64175,18.14295 -25.509365,18.82577 -18.27287,1.40705 -28.755211,-19.00744 -15.82694,-30.82315 2.056368,-1.87941 2.920569,-2.27435 1.401302,-0.6404 -10.665317,11.47039 -4.500266,29.10255 10.386318,29.70505 3.9853,0.1613 5.21138,-0.0501 2.36225,-0.40737 -16.182618,-2.02903 -22.396612,-17.44994 -11.42354,-28.34915 2.6738,-2.65581 3.07001,-2.69744 0.883061,-0.0928 -14.453198,17.21365 8.801859,37.59479 25.556424,22.39809 1.24412,-1.12845 0.91624,-1.11338 -1.15474,0.0531 -18.283115,10.29769 -35.883122,-5.39746 -23.591535,-21.03821 1.31403,-1.67207 1.96376,-2.24123 1.16249,-1.01834 -2.520742,3.84714 -4.104075,8.22744 -4.122731,11.40556 -0.05596,9.53319 12.676031,15.64867 22.418876,10.76832 2.32529,-1.16477 2.66872,-1.52369 0.93076,-0.97275 -14.170985,4.49231 -26.262934,-5.29028 -20.142955,-16.29599 0.51495,-0.92604 0.51495,-0.92604 0.36539,-0.014 -0.816729,4.98083 0.087,8.22419 3.05818,10.97494 3.96375,3.66974 8.91914,4.6001 16.348525,3.06936 3.71994,-0.76644 5.4402,-1.32169 2.80868,-0.90655 -13.862485,2.1869 -22.633015,-4.41794 -20.133405,-15.1619 0.6029,-2.59145 1.57439,-9.33304 1.37383,-9.5336 -1.3653,-1.3653 -9.597506,3.75643 -12.148108,7.55803 -10.51179,15.66756 3.724656,35.08085 22.176433,30.24051 z m 1.43548,-34.26085 c 0.48202,-4.12761 0.5812,-4.54059 1.47379,-6.13669 3.13559,-5.60695 8.80046,-10.93132 14.49837,-13.62689 2.02291,-0.956996 1.12702,-1.096156 -1.47484,-0.229086 -4.9448,1.647866 -8.79326,4.925846 -13.02396,11.093366 -3.12131,4.55026 -4.075795,4.83544 -5.507355,1.6455 -3.07904,-6.86102 0.76051,-10.80783 12.321955,-12.666146 1.82468,-0.29329 1.09009,-0.68402 -0.92604,-0.49256 -8.85593,0.841006 -14.364535,3.703936 -14.979915,7.785366 -1.77006,11.73964 -1.93631,14.04659 -1.01226,14.04659 0.4168,0 1.78401,-7.19299 1.77572,-9.34218 -0.003,-0.78197 0.0971,-1.20936 0.25967,-1.10886 0.14553,0.0899 0.26459,0.3449 0.26459,0.56658 0,0.22168 0.35719,1.21688 0.79375,2.21154 0.77202,1.75899 0.79375,1.92279 0.79375,5.98425 0,4.93335 0.2415,4.96057 1.02935,0.11604 0.57299,-3.52332 0.82854,-4.2482 1.49769,-4.2482 0.790085,0 1.177125,0.81931 1.177125,2.49179 0,1.98626 0.30765,6.54917 0.43312,6.42371 0.0488,-0.0488 0.32125,-2.08014 0.60549,-4.51412 z"
       id="path349" />
  </g>
</svg>
